<mxfile host="65bd71144e">
    <diagram id="hKhKamDYvKwM5PcbmGid" name="Initial">
        <mxGraphModel dx="864" dy="508" grid="1" gridSize="10" guides="1" tooltips="1" connect="1" arrows="1" fold="1" page="1" pageScale="1" pageWidth="850" pageHeight="1100" background="#FFFFFF" math="0" shadow="0">
            <root>
                <mxCell id="0"/>
                <mxCell id="1" parent="0"/>
                <mxCell id="2" value=":Browser" style="shape=umlLifeline;perimeter=lifelinePerimeter;container=1;collapsible=0;recursiveResize=0;rounded=0;shadow=0;strokeWidth=1;" parent="1" vertex="1">
                    <mxGeometry x="120" y="80" width="100" height="210" as="geometry"/>
                </mxCell>
                <mxCell id="6" value=":FrontEnd" style="shape=umlLifeline;perimeter=lifelinePerimeter;container=1;collapsible=0;recursiveResize=0;rounded=0;shadow=0;strokeWidth=1;" parent="1" vertex="1">
                    <mxGeometry x="300" y="80" width="100" height="210" as="geometry"/>
                </mxCell>
                <mxCell id="7" value="" style="points=[];perimeter=orthogonalPerimeter;rounded=0;shadow=0;strokeWidth=1;" parent="6" vertex="1">
                    <mxGeometry x="45" y="80" width="10" height="90" as="geometry"/>
                </mxCell>
                <mxCell id="9" value="Request trang admin/department" style="verticalAlign=bottom;endArrow=block;entryX=0;entryY=0;shadow=0;strokeWidth=1;" parent="1" target="7" edge="1">
                    <mxGeometry relative="1" as="geometry">
                        <mxPoint x="175" y="160.00000000000023" as="sourcePoint"/>
                    </mxGeometry>
                </mxCell>
                <mxCell id="11" value="Cập nhật table Department" style="verticalAlign=bottom;endArrow=none;dashed=1;endSize=8;shadow=0;strokeWidth=1;startArrow=open;startFill=0;endFill=0;exitX=0.524;exitY=0.799;exitDx=0;exitDy=0;exitPerimeter=0;" parent="1" source="2" target="7" edge="1">
                    <mxGeometry relative="1" as="geometry">
                        <mxPoint x="240" y="257" as="targetPoint"/>
                        <mxPoint x="180" y="276" as="sourcePoint"/>
                    </mxGeometry>
                </mxCell>
                <mxCell id="12" value=":BackEnd" style="shape=umlLifeline;perimeter=lifelinePerimeter;container=1;collapsible=0;recursiveResize=0;rounded=0;shadow=0;strokeWidth=1;" parent="1" vertex="1">
                    <mxGeometry x="480" y="80" width="100" height="210" as="geometry"/>
                </mxCell>
                <mxCell id="14" value="" style="points=[];perimeter=orthogonalPerimeter;rounded=0;shadow=0;strokeWidth=1;" parent="12" vertex="1">
                    <mxGeometry x="45" y="90" width="10" height="60" as="geometry"/>
                </mxCell>
                <mxCell id="15" value="" style="edgeStyle=none;html=1;" parent="1" source="7" target="14" edge="1">
                    <mxGeometry relative="1" as="geometry">
                        <Array as="points">
                            <mxPoint x="400" y="170"/>
                        </Array>
                    </mxGeometry>
                </mxCell>
                <mxCell id="16" value="Lấy danh sách Department&lt;br&gt;với thông tin pagination" style="edgeLabel;html=1;align=center;verticalAlign=middle;resizable=0;points=[];" parent="15" vertex="1" connectable="0">
                    <mxGeometry x="-0.3218" y="-1" relative="1" as="geometry">
                        <mxPoint x="27" y="-11" as="offset"/>
                    </mxGeometry>
                </mxCell>
                <mxCell id="8" value="Danh sách Department" style="verticalAlign=bottom;endArrow=open;dashed=1;endSize=8;shadow=0;strokeWidth=1;entryX=1.42;entryY=0.77;entryDx=0;entryDy=0;entryPerimeter=0;" parent="1" source="12" target="7" edge="1">
                    <mxGeometry relative="1" as="geometry">
                        <mxPoint x="350" y="230" as="targetPoint"/>
                    </mxGeometry>
                </mxCell>
            </root>
        </mxGraphModel>
    </diagram>
    <diagram id="C13aUhzuOu5dl0LDq68B" name="GetFilteredList">
        <mxGraphModel dx="715" dy="420" grid="1" gridSize="10" guides="1" tooltips="1" connect="1" arrows="1" fold="1" page="1" pageScale="1" pageWidth="850" pageHeight="1100" background="#FFFFFF" math="0" shadow="0">
            <root>
                <mxCell id="tst3XvYYxz7MYVdckOnE-0"/>
                <mxCell id="tst3XvYYxz7MYVdckOnE-1" parent="tst3XvYYxz7MYVdckOnE-0"/>
                <mxCell id="lOy33HsSfKAO4aPD6dcX-0" value=":Browser" style="shape=umlLifeline;perimeter=lifelinePerimeter;container=1;collapsible=0;recursiveResize=0;rounded=0;shadow=0;strokeWidth=1;" parent="tst3XvYYxz7MYVdckOnE-1" vertex="1">
                    <mxGeometry x="120" y="80" width="100" height="210" as="geometry"/>
                </mxCell>
                <mxCell id="lOy33HsSfKAO4aPD6dcX-1" value=":FrontEnd" style="shape=umlLifeline;perimeter=lifelinePerimeter;container=1;collapsible=0;recursiveResize=0;rounded=0;shadow=0;strokeWidth=1;" parent="tst3XvYYxz7MYVdckOnE-1" vertex="1">
                    <mxGeometry x="300" y="80" width="100" height="210" as="geometry"/>
                </mxCell>
                <mxCell id="lOy33HsSfKAO4aPD6dcX-2" value="" style="points=[];perimeter=orthogonalPerimeter;rounded=0;shadow=0;strokeWidth=1;" parent="lOy33HsSfKAO4aPD6dcX-1" vertex="1">
                    <mxGeometry x="45" y="80" width="10" height="90" as="geometry"/>
                </mxCell>
                <mxCell id="lOy33HsSfKAO4aPD6dcX-3" value="Submit form filter" style="verticalAlign=bottom;endArrow=block;entryX=0;entryY=0;shadow=0;strokeWidth=1;" parent="tst3XvYYxz7MYVdckOnE-1" target="lOy33HsSfKAO4aPD6dcX-2" edge="1">
                    <mxGeometry relative="1" as="geometry">
                        <mxPoint x="175" y="160.00000000000023" as="sourcePoint"/>
                    </mxGeometry>
                </mxCell>
                <mxCell id="lOy33HsSfKAO4aPD6dcX-4" value="Cập nhật table Department" style="verticalAlign=bottom;endArrow=none;dashed=1;endSize=8;shadow=0;strokeWidth=1;startArrow=open;startFill=0;endFill=0;exitX=0.524;exitY=0.799;exitDx=0;exitDy=0;exitPerimeter=0;" parent="tst3XvYYxz7MYVdckOnE-1" source="lOy33HsSfKAO4aPD6dcX-0" target="lOy33HsSfKAO4aPD6dcX-2" edge="1">
                    <mxGeometry relative="1" as="geometry">
                        <mxPoint x="240" y="257" as="targetPoint"/>
                        <mxPoint x="180" y="276" as="sourcePoint"/>
                    </mxGeometry>
                </mxCell>
                <mxCell id="lOy33HsSfKAO4aPD6dcX-5" value=":BackEnd" style="shape=umlLifeline;perimeter=lifelinePerimeter;container=1;collapsible=0;recursiveResize=0;rounded=0;shadow=0;strokeWidth=1;" parent="tst3XvYYxz7MYVdckOnE-1" vertex="1">
                    <mxGeometry x="480" y="80" width="100" height="210" as="geometry"/>
                </mxCell>
                <mxCell id="lOy33HsSfKAO4aPD6dcX-6" value="" style="points=[];perimeter=orthogonalPerimeter;rounded=0;shadow=0;strokeWidth=1;" parent="lOy33HsSfKAO4aPD6dcX-5" vertex="1">
                    <mxGeometry x="45" y="90" width="10" height="60" as="geometry"/>
                </mxCell>
                <mxCell id="lOy33HsSfKAO4aPD6dcX-7" value="" style="edgeStyle=none;html=1;" parent="tst3XvYYxz7MYVdckOnE-1" source="lOy33HsSfKAO4aPD6dcX-2" target="lOy33HsSfKAO4aPD6dcX-6" edge="1">
                    <mxGeometry relative="1" as="geometry">
                        <Array as="points">
                            <mxPoint x="400" y="170"/>
                        </Array>
                    </mxGeometry>
                </mxCell>
                <mxCell id="lOy33HsSfKAO4aPD6dcX-8" value="Lấy danh sách Department với&lt;br&gt;filter và pagination" style="edgeLabel;html=1;align=center;verticalAlign=middle;resizable=0;points=[];" parent="lOy33HsSfKAO4aPD6dcX-7" vertex="1" connectable="0">
                    <mxGeometry x="-0.3218" y="-1" relative="1" as="geometry">
                        <mxPoint x="27" y="-21" as="offset"/>
                    </mxGeometry>
                </mxCell>
                <mxCell id="lOy33HsSfKAO4aPD6dcX-9" value="Danh sách Department" style="verticalAlign=bottom;endArrow=open;dashed=1;endSize=8;shadow=0;strokeWidth=1;entryX=1.42;entryY=0.77;entryDx=0;entryDy=0;entryPerimeter=0;" parent="tst3XvYYxz7MYVdckOnE-1" source="lOy33HsSfKAO4aPD6dcX-5" target="lOy33HsSfKAO4aPD6dcX-2" edge="1">
                    <mxGeometry relative="1" as="geometry">
                        <mxPoint x="350" y="230" as="targetPoint"/>
                    </mxGeometry>
                </mxCell>
                <mxCell id="onUA0S23U_TEy8nYSZC8-0" style="edgeStyle=none;html=1;exitX=1;exitY=0.5;exitDx=0;exitDy=0;exitPerimeter=0;startArrow=none;startFill=0;endArrow=open;endFill=0;" parent="tst3XvYYxz7MYVdckOnE-1" source="Ic-gCnPDKafrQIPB2RJt-0" edge="1">
                    <mxGeometry relative="1" as="geometry">
                        <mxPoint x="50" y="135" as="sourcePoint"/>
                        <mxPoint x="169.5" y="135" as="targetPoint"/>
                    </mxGeometry>
                </mxCell>
                <mxCell id="onUA0S23U_TEy8nYSZC8-1" value="Ở danh sách department" style="edgeLabel;html=1;align=center;verticalAlign=middle;resizable=0;points=[];" parent="onUA0S23U_TEy8nYSZC8-0" vertex="1" connectable="0">
                    <mxGeometry x="-0.1774" y="-1" relative="1" as="geometry">
                        <mxPoint x="4" y="14" as="offset"/>
                    </mxGeometry>
                </mxCell>
                <mxCell id="Ic-gCnPDKafrQIPB2RJt-0" value="" style="points=[[0.145,0.145,0],[0.5,0,0],[0.855,0.145,0],[1,0.5,0],[0.855,0.855,0],[0.5,1,0],[0.145,0.855,0],[0,0.5,0]];shape=mxgraph.bpmn.event;html=1;verticalLabelPosition=bottom;labelBackgroundColor=#ffffff;verticalAlign=top;align=center;perimeter=ellipsePerimeter;outlineConnect=0;aspect=fixed;outline=standard;symbol=general;" parent="tst3XvYYxz7MYVdckOnE-1" vertex="1">
                    <mxGeometry y="130" width="10" height="10" as="geometry"/>
                </mxCell>
            </root>
        </mxGraphModel>
    </diagram>
    <diagram id="1DwM5BAz2QqoBL4eSZ5e" name="Create">
        <mxGraphModel dx="715" dy="420" grid="1" gridSize="10" guides="1" tooltips="1" connect="1" arrows="1" fold="1" page="1" pageScale="1" pageWidth="850" pageHeight="1100" math="0" shadow="0">
            <root>
                <mxCell id="_6ABs9RttPBfUa6rYKMm-0"/>
                <mxCell id="_6ABs9RttPBfUa6rYKMm-1" parent="_6ABs9RttPBfUa6rYKMm-0"/>
                <mxCell id="aGhTTBxB6B4Mu2hbM6IC-0" value=":Browser" style="shape=umlLifeline;perimeter=lifelinePerimeter;container=1;collapsible=0;recursiveResize=0;rounded=0;shadow=0;strokeWidth=1;" parent="_6ABs9RttPBfUa6rYKMm-1" vertex="1">
                    <mxGeometry x="120" y="80" width="100" height="340" as="geometry"/>
                </mxCell>
                <mxCell id="xKE1_iTbOwYGsxzcUNAa-2" value="" style="points=[];perimeter=orthogonalPerimeter;rounded=0;shadow=0;strokeWidth=1;" parent="aGhTTBxB6B4Mu2hbM6IC-0" vertex="1">
                    <mxGeometry x="45" y="75" width="10" height="95" as="geometry"/>
                </mxCell>
                <mxCell id="aGhTTBxB6B4Mu2hbM6IC-1" value=":FrontEnd" style="shape=umlLifeline;perimeter=lifelinePerimeter;container=1;collapsible=0;recursiveResize=0;rounded=0;shadow=0;strokeWidth=1;" parent="_6ABs9RttPBfUa6rYKMm-1" vertex="1">
                    <mxGeometry x="300" y="80" width="100" height="340" as="geometry"/>
                </mxCell>
                <mxCell id="aGhTTBxB6B4Mu2hbM6IC-2" value="" style="points=[];perimeter=orthogonalPerimeter;rounded=0;shadow=0;strokeWidth=1;" parent="aGhTTBxB6B4Mu2hbM6IC-1" vertex="1">
                    <mxGeometry x="45" y="80" width="10" height="90" as="geometry"/>
                </mxCell>
                <mxCell id="aGhTTBxB6B4Mu2hbM6IC-3" value="Nhập thông tin khoa phòng" style="verticalAlign=bottom;endArrow=block;entryX=0;entryY=0;shadow=0;strokeWidth=1;" parent="_6ABs9RttPBfUa6rYKMm-1" target="aGhTTBxB6B4Mu2hbM6IC-2" edge="1">
                    <mxGeometry relative="1" as="geometry">
                        <mxPoint x="175" y="160.00000000000023" as="sourcePoint"/>
                    </mxGeometry>
                </mxCell>
                <mxCell id="aGhTTBxB6B4Mu2hbM6IC-5" value=":BackEnd" style="shape=umlLifeline;perimeter=lifelinePerimeter;container=1;collapsible=0;recursiveResize=0;rounded=0;shadow=0;strokeWidth=1;" parent="_6ABs9RttPBfUa6rYKMm-1" vertex="1">
                    <mxGeometry x="480" y="80" width="100" height="340" as="geometry"/>
                </mxCell>
                <mxCell id="X6fr_xw9K7NLZ30ilY3F-1" style="edgeStyle=none;html=1;exitX=1;exitY=0.5;exitDx=0;exitDy=0;exitPerimeter=0;startArrow=none;startFill=0;endArrow=open;endFill=0;" parent="_6ABs9RttPBfUa6rYKMm-1" source="X6fr_xw9K7NLZ30ilY3F-0" target="aGhTTBxB6B4Mu2hbM6IC-0" edge="1">
                    <mxGeometry relative="1" as="geometry"/>
                </mxCell>
                <mxCell id="X6fr_xw9K7NLZ30ilY3F-2" value="Ở popup tạo mới" style="edgeLabel;html=1;align=center;verticalAlign=middle;resizable=0;points=[];" parent="X6fr_xw9K7NLZ30ilY3F-1" vertex="1" connectable="0">
                    <mxGeometry x="-0.1774" y="-1" relative="1" as="geometry">
                        <mxPoint as="offset"/>
                    </mxGeometry>
                </mxCell>
                <mxCell id="X6fr_xw9K7NLZ30ilY3F-0" value="" style="points=[[0.145,0.145,0],[0.5,0,0],[0.855,0.145,0],[1,0.5,0],[0.855,0.855,0],[0.5,1,0],[0.145,0.855,0],[0,0.5,0]];shape=mxgraph.bpmn.event;html=1;verticalLabelPosition=bottom;labelBackgroundColor=#ffffff;verticalAlign=top;align=center;perimeter=ellipsePerimeter;outlineConnect=0;aspect=fixed;outline=standard;symbol=general;" parent="_6ABs9RttPBfUa6rYKMm-1" vertex="1">
                    <mxGeometry x="40" y="130" width="10" height="10" as="geometry"/>
                </mxCell>
                <mxCell id="xKE1_iTbOwYGsxzcUNAa-4" value="Validate thông tin nhập" style="verticalAlign=bottom;endArrow=none;dashed=1;endSize=8;shadow=0;strokeWidth=1;startArrow=open;startFill=0;endFill=0;exitX=1.219;exitY=0.945;exitDx=0;exitDy=0;exitPerimeter=0;" parent="_6ABs9RttPBfUa6rYKMm-1" source="xKE1_iTbOwYGsxzcUNAa-2" target="aGhTTBxB6B4Mu2hbM6IC-1" edge="1">
                    <mxGeometry relative="1" as="geometry">
                        <mxPoint x="355" y="257.78999999999996" as="targetPoint"/>
                        <mxPoint x="170" y="197" as="sourcePoint"/>
                    </mxGeometry>
                </mxCell>
                <mxCell id="xKE1_iTbOwYGsxzcUNAa-5" value="" style="points=[];perimeter=orthogonalPerimeter;rounded=0;shadow=0;strokeWidth=1;" parent="_6ABs9RttPBfUa6rYKMm-1" vertex="1">
                    <mxGeometry x="165" y="285" width="10" height="95" as="geometry"/>
                </mxCell>
                <mxCell id="xKE1_iTbOwYGsxzcUNAa-6" value="" style="points=[];perimeter=orthogonalPerimeter;rounded=0;shadow=0;strokeWidth=1;" parent="_6ABs9RttPBfUa6rYKMm-1" vertex="1">
                    <mxGeometry x="345" y="290" width="10" height="90" as="geometry"/>
                </mxCell>
                <mxCell id="xKE1_iTbOwYGsxzcUNAa-7" value="Chọn nút Tạo mới trong popup" style="verticalAlign=bottom;endArrow=block;entryX=0;entryY=0;shadow=0;strokeWidth=1;" parent="_6ABs9RttPBfUa6rYKMm-1" target="xKE1_iTbOwYGsxzcUNAa-6" edge="1">
                    <mxGeometry relative="1" as="geometry">
                        <mxPoint x="175" y="290.0000000000003" as="sourcePoint"/>
                    </mxGeometry>
                </mxCell>
                <mxCell id="xKE1_iTbOwYGsxzcUNAa-8" value="Cập nhật thông tin danh sách&#10;khoa phòng" style="verticalAlign=bottom;endArrow=none;dashed=1;endSize=8;shadow=0;strokeWidth=1;startArrow=open;startFill=0;endFill=0;exitX=0.524;exitY=0.799;exitDx=0;exitDy=0;exitPerimeter=0;" parent="_6ABs9RttPBfUa6rYKMm-1" target="xKE1_iTbOwYGsxzcUNAa-6" edge="1">
                    <mxGeometry relative="1" as="geometry">
                        <mxPoint x="240" y="387" as="targetPoint"/>
                        <mxPoint x="172.39999999999998" y="377.78999999999996" as="sourcePoint"/>
                    </mxGeometry>
                </mxCell>
                <mxCell id="xKE1_iTbOwYGsxzcUNAa-9" value="" style="points=[];perimeter=orthogonalPerimeter;rounded=0;shadow=0;strokeWidth=1;" parent="_6ABs9RttPBfUa6rYKMm-1" vertex="1">
                    <mxGeometry x="525" y="300" width="10" height="60" as="geometry"/>
                </mxCell>
                <mxCell id="xKE1_iTbOwYGsxzcUNAa-10" value="" style="edgeStyle=none;html=1;entryX=0.172;entryY=0.325;entryDx=0;entryDy=0;entryPerimeter=0;" parent="_6ABs9RttPBfUa6rYKMm-1" source="aGhTTBxB6B4Mu2hbM6IC-1" target="xKE1_iTbOwYGsxzcUNAa-9" edge="1">
                    <mxGeometry relative="1" as="geometry">
                        <Array as="points"/>
                    </mxGeometry>
                </mxCell>
                <mxCell id="xKE1_iTbOwYGsxzcUNAa-11" value="Request tạo mới khoa phòng" style="edgeLabel;html=1;align=center;verticalAlign=middle;resizable=0;points=[];" parent="xKE1_iTbOwYGsxzcUNAa-10" vertex="1" connectable="0">
                    <mxGeometry x="-0.3218" y="-1" relative="1" as="geometry">
                        <mxPoint x="27" y="-21" as="offset"/>
                    </mxGeometry>
                </mxCell>
                <mxCell id="xKE1_iTbOwYGsxzcUNAa-12" value="Thông tin khoa phòng mới" style="verticalAlign=bottom;endArrow=open;dashed=1;endSize=8;shadow=0;strokeWidth=1;entryX=1.42;entryY=0.77;entryDx=0;entryDy=0;entryPerimeter=0;" parent="_6ABs9RttPBfUa6rYKMm-1" target="xKE1_iTbOwYGsxzcUNAa-6" edge="1">
                    <mxGeometry relative="1" as="geometry">
                        <mxPoint x="350" y="360" as="targetPoint"/>
                        <mxPoint x="529.5" y="359.29999999999995" as="sourcePoint"/>
                    </mxGeometry>
                </mxCell>
                <mxCell id="xKE1_iTbOwYGsxzcUNAa-13" value="Validate thông tin nhập" style="verticalAlign=bottom;endArrow=none;dashed=1;endSize=8;shadow=0;strokeWidth=1;startArrow=open;startFill=0;endFill=0;exitX=1.172;exitY=0.262;exitDx=0;exitDy=0;exitPerimeter=0;" parent="_6ABs9RttPBfUa6rYKMm-1" source="xKE1_iTbOwYGsxzcUNAa-5" target="xKE1_iTbOwYGsxzcUNAa-6" edge="1">
                    <mxGeometry relative="1" as="geometry">
                        <mxPoint x="355" y="387.78999999999996" as="targetPoint"/>
                        <mxPoint x="170" y="327" as="sourcePoint"/>
                    </mxGeometry>
                </mxCell>
            </root>
        </mxGraphModel>
    </diagram>
    <diagram id="QPrrumHiH7nNfCPU_ZAg" name="Edit">
        <mxGraphModel dx="864" dy="508" grid="1" gridSize="10" guides="1" tooltips="1" connect="1" arrows="1" fold="1" page="1" pageScale="1" pageWidth="850" pageHeight="1100" math="0" shadow="0">
            <root>
                <mxCell id="avOKvPksM9z-QGy5cNoB-0"/>
                <mxCell id="avOKvPksM9z-QGy5cNoB-1" parent="avOKvPksM9z-QGy5cNoB-0"/>
                <mxCell id="oB_LAm5TgwUzyHIDxZA5-0" value=":Browser" style="shape=umlLifeline;perimeter=lifelinePerimeter;container=1;collapsible=0;recursiveResize=0;rounded=0;shadow=0;strokeWidth=1;" parent="avOKvPksM9z-QGy5cNoB-1" vertex="1">
                    <mxGeometry x="120" y="80" width="100" height="340" as="geometry"/>
                </mxCell>
                <mxCell id="oB_LAm5TgwUzyHIDxZA5-1" value="" style="points=[];perimeter=orthogonalPerimeter;rounded=0;shadow=0;strokeWidth=1;" parent="oB_LAm5TgwUzyHIDxZA5-0" vertex="1">
                    <mxGeometry x="45" y="75" width="10" height="95" as="geometry"/>
                </mxCell>
                <mxCell id="oB_LAm5TgwUzyHIDxZA5-2" value=":FrontEnd" style="shape=umlLifeline;perimeter=lifelinePerimeter;container=1;collapsible=0;recursiveResize=0;rounded=0;shadow=0;strokeWidth=1;" parent="avOKvPksM9z-QGy5cNoB-1" vertex="1">
                    <mxGeometry x="300" y="80" width="100" height="340" as="geometry"/>
                </mxCell>
                <mxCell id="oB_LAm5TgwUzyHIDxZA5-3" value="" style="points=[];perimeter=orthogonalPerimeter;rounded=0;shadow=0;strokeWidth=1;" parent="oB_LAm5TgwUzyHIDxZA5-2" vertex="1">
                    <mxGeometry x="45" y="80" width="10" height="90" as="geometry"/>
                </mxCell>
                <mxCell id="oB_LAm5TgwUzyHIDxZA5-4" value="Nhập thông tin khoa phòng" style="verticalAlign=bottom;endArrow=block;entryX=0;entryY=0;shadow=0;strokeWidth=1;" parent="avOKvPksM9z-QGy5cNoB-1" target="oB_LAm5TgwUzyHIDxZA5-3" edge="1">
                    <mxGeometry relative="1" as="geometry">
                        <mxPoint x="175.0000000000001" y="160.00000000000023" as="sourcePoint"/>
                    </mxGeometry>
                </mxCell>
                <mxCell id="oB_LAm5TgwUzyHIDxZA5-5" value=":BackEnd" style="shape=umlLifeline;perimeter=lifelinePerimeter;container=1;collapsible=0;recursiveResize=0;rounded=0;shadow=0;strokeWidth=1;" parent="avOKvPksM9z-QGy5cNoB-1" vertex="1">
                    <mxGeometry x="480" y="80" width="100" height="340" as="geometry"/>
                </mxCell>
                <mxCell id="oB_LAm5TgwUzyHIDxZA5-6" style="edgeStyle=none;html=1;exitX=1;exitY=0.5;exitDx=0;exitDy=0;exitPerimeter=0;startArrow=none;startFill=0;endArrow=open;endFill=0;" parent="avOKvPksM9z-QGy5cNoB-1" source="oB_LAm5TgwUzyHIDxZA5-8" target="oB_LAm5TgwUzyHIDxZA5-0" edge="1">
                    <mxGeometry relative="1" as="geometry"/>
                </mxCell>
                <mxCell id="oB_LAm5TgwUzyHIDxZA5-7" value="Ở popup sửa thông tin" style="edgeLabel;html=1;align=center;verticalAlign=middle;resizable=0;points=[];" parent="oB_LAm5TgwUzyHIDxZA5-6" vertex="1" connectable="0">
                    <mxGeometry x="-0.1774" y="-1" relative="1" as="geometry">
                        <mxPoint as="offset"/>
                    </mxGeometry>
                </mxCell>
                <mxCell id="oB_LAm5TgwUzyHIDxZA5-8" value="" style="points=[[0.145,0.145,0],[0.5,0,0],[0.855,0.145,0],[1,0.5,0],[0.855,0.855,0],[0.5,1,0],[0.145,0.855,0],[0,0.5,0]];shape=mxgraph.bpmn.event;html=1;verticalLabelPosition=bottom;labelBackgroundColor=#ffffff;verticalAlign=top;align=center;perimeter=ellipsePerimeter;outlineConnect=0;aspect=fixed;outline=standard;symbol=general;" parent="avOKvPksM9z-QGy5cNoB-1" vertex="1">
                    <mxGeometry x="20" y="130" width="10" height="10" as="geometry"/>
                </mxCell>
                <mxCell id="oB_LAm5TgwUzyHIDxZA5-9" value="Validate thông tin nhập" style="verticalAlign=bottom;endArrow=none;dashed=1;endSize=8;shadow=0;strokeWidth=1;startArrow=open;startFill=0;endFill=0;exitX=1.219;exitY=0.945;exitDx=0;exitDy=0;exitPerimeter=0;" parent="avOKvPksM9z-QGy5cNoB-1" source="oB_LAm5TgwUzyHIDxZA5-1" target="oB_LAm5TgwUzyHIDxZA5-2" edge="1">
                    <mxGeometry relative="1" as="geometry">
                        <mxPoint x="355" y="257.78999999999996" as="targetPoint"/>
                        <mxPoint x="170" y="197" as="sourcePoint"/>
                    </mxGeometry>
                </mxCell>
                <mxCell id="oB_LAm5TgwUzyHIDxZA5-10" value="" style="points=[];perimeter=orthogonalPerimeter;rounded=0;shadow=0;strokeWidth=1;" parent="avOKvPksM9z-QGy5cNoB-1" vertex="1">
                    <mxGeometry x="165" y="285" width="10" height="95" as="geometry"/>
                </mxCell>
                <mxCell id="oB_LAm5TgwUzyHIDxZA5-11" value="" style="points=[];perimeter=orthogonalPerimeter;rounded=0;shadow=0;strokeWidth=1;" parent="avOKvPksM9z-QGy5cNoB-1" vertex="1">
                    <mxGeometry x="345" y="290" width="10" height="90" as="geometry"/>
                </mxCell>
                <mxCell id="oB_LAm5TgwUzyHIDxZA5-12" value="Chọn nút Thay đổi trong popup" style="verticalAlign=bottom;endArrow=block;entryX=0;entryY=0;shadow=0;strokeWidth=1;" parent="avOKvPksM9z-QGy5cNoB-1" target="oB_LAm5TgwUzyHIDxZA5-11" edge="1">
                    <mxGeometry relative="1" as="geometry">
                        <mxPoint x="175.0000000000001" y="290.0000000000002" as="sourcePoint"/>
                    </mxGeometry>
                </mxCell>
                <mxCell id="oB_LAm5TgwUzyHIDxZA5-13" value="Cập nhật thông tin danh sách&#10;khoa phòng" style="verticalAlign=bottom;endArrow=none;dashed=1;endSize=8;shadow=0;strokeWidth=1;startArrow=open;startFill=0;endFill=0;exitX=0.524;exitY=0.799;exitDx=0;exitDy=0;exitPerimeter=0;" parent="avOKvPksM9z-QGy5cNoB-1" target="oB_LAm5TgwUzyHIDxZA5-11" edge="1">
                    <mxGeometry relative="1" as="geometry">
                        <mxPoint x="240" y="387" as="targetPoint"/>
                        <mxPoint x="172.39999999999998" y="377.78999999999996" as="sourcePoint"/>
                    </mxGeometry>
                </mxCell>
                <mxCell id="oB_LAm5TgwUzyHIDxZA5-14" value="" style="points=[];perimeter=orthogonalPerimeter;rounded=0;shadow=0;strokeWidth=1;" parent="avOKvPksM9z-QGy5cNoB-1" vertex="1">
                    <mxGeometry x="525" y="300" width="10" height="60" as="geometry"/>
                </mxCell>
                <mxCell id="oB_LAm5TgwUzyHIDxZA5-15" value="" style="edgeStyle=none;html=1;entryX=0.172;entryY=0.325;entryDx=0;entryDy=0;entryPerimeter=0;" parent="avOKvPksM9z-QGy5cNoB-1" source="oB_LAm5TgwUzyHIDxZA5-2" target="oB_LAm5TgwUzyHIDxZA5-14" edge="1">
                    <mxGeometry relative="1" as="geometry">
                        <Array as="points"/>
                    </mxGeometry>
                </mxCell>
                <mxCell id="oB_LAm5TgwUzyHIDxZA5-16" value="Request sửa khoa phòng" style="edgeLabel;html=1;align=center;verticalAlign=middle;resizable=0;points=[];" parent="oB_LAm5TgwUzyHIDxZA5-15" vertex="1" connectable="0">
                    <mxGeometry x="-0.3218" y="-1" relative="1" as="geometry">
                        <mxPoint x="27" y="-21" as="offset"/>
                    </mxGeometry>
                </mxCell>
                <mxCell id="oB_LAm5TgwUzyHIDxZA5-17" value="Thông tin khoa phòng mới" style="verticalAlign=bottom;endArrow=open;dashed=1;endSize=8;shadow=0;strokeWidth=1;entryX=1.42;entryY=0.77;entryDx=0;entryDy=0;entryPerimeter=0;" parent="avOKvPksM9z-QGy5cNoB-1" target="oB_LAm5TgwUzyHIDxZA5-11" edge="1">
                    <mxGeometry relative="1" as="geometry">
                        <mxPoint x="350" y="360" as="targetPoint"/>
                        <mxPoint x="529.5" y="359.30000000000007" as="sourcePoint"/>
                    </mxGeometry>
                </mxCell>
                <mxCell id="oB_LAm5TgwUzyHIDxZA5-18" value="Validate thông tin nhập" style="verticalAlign=bottom;endArrow=none;dashed=1;endSize=8;shadow=0;strokeWidth=1;startArrow=open;startFill=0;endFill=0;exitX=1.172;exitY=0.262;exitDx=0;exitDy=0;exitPerimeter=0;" parent="avOKvPksM9z-QGy5cNoB-1" source="oB_LAm5TgwUzyHIDxZA5-10" target="oB_LAm5TgwUzyHIDxZA5-11" edge="1">
                    <mxGeometry relative="1" as="geometry">
                        <mxPoint x="355" y="387.78999999999996" as="targetPoint"/>
                        <mxPoint x="170" y="327" as="sourcePoint"/>
                    </mxGeometry>
                </mxCell>
            </root>
        </mxGraphModel>
    </diagram>
</mxfile>